<?xml version="1.0" encoding="UTF-8"?>
<svg version="1.1" xmlns="http://www.w3.org/2000/svg" width="512" height="512">
<path d="M0 0 C0.83273438 0.7734375 1.66546875 1.546875 2.5234375 2.34375 C3.0606543 2.84003906 3.59787109 3.33632813 4.15136719 3.84765625 C14.71334737 13.70472766 23.52867424 24.05101408 29.5234375 37.34375 C31.51871106 34.79139151 33.12816384 32.29408299 34.5859375 29.40625 C47.33200886 6.33472618 69.60170553 -10.92911243 94.78613281 -18.3203125 C102.54061149 -20.4227709 110.47440185 -22.30695223 118.5234375 -22.65625 C119.70292969 -22.71619141 119.70292969 -22.71619141 120.90625 -22.77734375 C135.45422767 -23.14647154 148.9188673 -20.57735636 162.5234375 -15.65625 C163.59464844 -15.2746875 164.66585938 -14.893125 165.76953125 -14.5 C191.09572728 -4.75155523 210.82712155 17.05942906 221.72119141 41.41650391 C232.06867027 66.27438527 232.44745928 95.3313494 222.5234375 120.34375 C212.51221409 143.89859425 196.04846485 161.00819321 174.5234375 174.34375 C173.0384375 175.33375 173.0384375 175.33375 171.5234375 176.34375 C172.16410156 176.88902344 172.80476563 177.43429688 173.46484375 177.99609375 C182.81722894 186.14981258 189.96645436 194.19755413 193.5234375 206.34375 C193.65234375 209.70703125 193.65234375 209.70703125 193.5234375 212.34375 C194.1834375 212.34375 194.8434375 212.34375 195.5234375 212.34375 C195.6678125 211.395 195.8121875 210.44625 195.9609375 209.46875 C198.27598516 201.23187754 207.00856465 193.92205429 214.20358276 189.8132019 C215.16620026 189.33069977 216.12881775 188.84819763 217.12060547 188.35107422 C218.21879608 187.79725067 219.31698669 187.24342712 220.44845581 186.67282104 C221.62562164 186.08727448 222.80278748 185.50172791 224.015625 184.8984375 C225.24741858 184.28152876 226.47903393 183.66426404 227.71047974 183.04666138 C230.28568661 181.75685311 232.86299988 180.47138293 235.44189453 179.18896484 C238.733133 177.55188372 242.01887354 175.90410103 245.30309868 174.25300407 C247.8438041 172.977208 250.38736295 171.70718752 252.93179703 170.43884659 C254.72965715 169.54139191 256.52511841 168.63913675 258.32052612 167.73678589 C269.47439314 162.20760106 279.30083345 159.22087622 291.7734375 162.46875 C300.71866173 165.54590714 307.70524634 172.28894314 312.69762421 180.20575047 C317.05867915 189.33890543 316.08301073 199.53289112 316.04101562 209.40795898 C316.04644121 211.54919917 316.05356632 213.69043561 316.06225586 215.83166504 C316.08044111 221.62717485 316.07344109 227.42239879 316.06073952 233.21791339 C316.05058572 239.29462098 316.06001192 245.37130471 316.06628418 251.44801331 C316.07355419 261.65231706 316.06399034 271.85650488 316.04492188 282.06079102 C316.02316032 293.84196756 316.03020206 305.62286711 316.0522275 317.40403694 C316.0704068 327.53513624 316.07292725 337.66615238 316.06247282 347.79726273 C316.05625108 353.84104293 316.05536586 359.88469314 316.06861877 365.92846489 C316.0802132 371.61263553 316.07208573 377.29645075 316.04904175 382.98058319 C316.04377361 385.06100183 316.04523577 387.14145062 316.05409241 389.22185707 C316.11026108 403.76149362 315.63915864 415.19386607 305.01953125 426.1796875 C301.19004583 429.49977345 297.24718913 431.56848387 292.5234375 433.34375 C291.55664062 433.72660156 291.55664062 433.72660156 290.5703125 434.1171875 C277.74511287 438.26651679 267.03972115 432.76543787 255.8125 427.0546875 C254.69649414 426.48202148 253.58048828 425.90935547 252.43066406 425.31933594 C248.6766552 423.40654508 244.88767051 421.56961181 241.09397888 419.73704529 C237.48948605 417.9945825 233.89239343 416.2371482 230.29605103 414.47793579 C228.50309306 413.60353439 226.7078482 412.73380529 224.9102478 411.86898804 C203.00303818 401.30295137 203.00303818 401.30295137 197.0234375 389.34375 C196.53875 388.395 196.0540625 387.44625 195.5546875 386.46875 C195.214375 385.7675 194.8740625 385.06625 194.5234375 384.34375 C194.36488281 385.02179688 194.20632813 385.69984375 194.04296875 386.3984375 C190.34366559 401.15477385 182.79770591 413.30237583 169.5234375 421.34375 C159.39774988 426.74511977 150.20449325 428.64925269 138.80314636 428.60444641 C137.75853392 428.60827196 136.71392149 428.61209751 135.63765413 428.61603898 C132.15576367 428.62631421 128.6740398 428.62238721 125.19213867 428.6184082 C122.68814441 428.62275772 120.18415148 428.62794167 117.68016052 428.63389587 C111.5953061 428.64588387 105.51051656 428.64844029 99.42565628 428.64609561 C94.47650281 428.64430876 89.5273627 428.64606994 84.57821083 428.65032005 C83.87240244 428.65091524 83.16659404 428.65151043 82.43939752 428.65212366 C81.0052881 428.65333548 79.57117868 428.65454961 78.13706926 428.65576603 C64.70258206 428.66663019 51.26811998 428.66448453 37.83363137 428.65838119 C25.56234488 428.65321418 13.29113781 428.66446374 1.01986703 428.68347941 C-11.60046184 428.70288502 -24.22075318 428.71110896 -36.84109706 428.70735615 C-43.91833561 428.70544809 -50.99550659 428.70789297 -58.07273293 428.72207069 C-64.73026092 428.73527337 -71.38760472 428.73268759 -78.04514122 428.71965981 C-80.48313323 428.71729839 -82.92113647 428.72001305 -85.3591156 428.72828293 C-108.942133 428.80248647 -108.942133 428.80248647 -118.4765625 425.34375 C-119.57871094 424.96476562 -120.68085937 424.58578125 -121.81640625 424.1953125 C-134.64505483 418.13787543 -144.5636169 407.66146705 -149.4765625 394.34375 C-152.9817738 382.70739649 -152.8697827 371.32032618 -152.76953125 359.2890625 C-152.76392319 357.29125286 -152.75965883 355.29343905 -152.75666809 353.29562378 C-152.74531445 348.08425129 -152.7159309 342.873137 -152.68255615 337.66186523 C-152.65164876 332.32539358 -152.63811895 326.98887946 -152.62304688 321.65234375 C-152.59105048 311.21603353 -152.53997145 300.77991339 -152.4765625 290.34375 C-157.7565625 290.34375 -163.0365625 290.34375 -168.4765625 290.34375 C-168.42435547 293.18033203 -168.42435547 293.18033203 -168.37109375 296.07421875 C-168.34295411 298.55988695 -168.31565414 301.04556476 -168.2890625 303.53125 C-168.26392578 304.77712891 -168.23878906 306.02300781 -168.21289062 307.30664062 C-168.20322266 308.50869141 -168.19355469 309.71074219 -168.18359375 310.94921875 C-168.1678833 312.05418701 -168.15217285 313.15915527 -168.13598633 314.29760742 C-168.52305348 317.75956935 -169.39791901 319.57252938 -171.4765625 322.34375 C-175.22703732 324.84406654 -177.03512516 324.87978554 -181.4765625 324.34375 C-184.1962038 322.36180665 -186.13761853 320.77422455 -186.93788528 317.39678955 C-187.12843691 314.99367922 -187.15213294 312.6371419 -187.12353516 310.2265625 C-187.13229675 309.3170282 -187.14105835 308.4074939 -187.15008545 307.47039795 C-187.17205937 304.46936074 -187.15753366 301.46980171 -187.140625 298.46875 C-187.1439937 296.38036822 -187.14884678 294.29198835 -187.15512085 292.20361328 C-187.16248947 287.82891149 -187.15178668 283.4547205 -187.12841797 279.08007812 C-187.09993057 273.47416527 -187.11633454 267.86944927 -187.14628029 262.26358032 C-187.16435331 257.95181266 -187.15859513 253.64032848 -187.14564133 249.32855225 C-187.14230735 247.26169696 -187.14639409 245.19481589 -187.15803909 243.12799072 C-187.17074759 240.23828017 -187.15137052 237.35050405 -187.12353516 234.4609375 C-187.13365631 233.60779968 -187.14377747 232.75466187 -187.15420532 231.87567139 C-187.07634366 227.50974574 -186.88021249 225.85027273 -184.06503296 222.31762695 C-180.85679684 219.8711384 -179.31785897 219.51675784 -175.4140625 219.8125 C-172.68311633 220.56130782 -170.95331663 221.9945344 -169.30859375 224.27734375 C-167.60150907 228.51700475 -168.20284493 232.85478192 -168.4765625 237.34375 C-163.1965625 237.34375 -157.9165625 237.34375 -152.4765625 237.34375 C-152.52876953 235.31347656 -152.52876953 235.31347656 -152.58203125 233.2421875 C-152.94403011 213.36333093 -150.60504763 196.85633319 -136.28125 181.8359375 C-132.03633109 178.06399005 -125.44613226 172.34375 -119.4765625 172.34375 C-119.4765625 171.68375 -119.4765625 171.02375 -119.4765625 170.34375 C-120.19457031 170.09625 -120.91257812 169.84875 -121.65234375 169.59375 C-140.48798096 161.25709176 -155.08213691 139.18189508 -162.62011719 120.65136719 C-172.50612805 94.01437327 -172.27080123 64.51886531 -160.62890625 38.4453125 C-148.29139853 12.27484158 -126.5396273 -7.07045945 -99.5 -17.1953125 C-66.92909078 -28.57163919 -26.51541063 -22.80506306 0 0 Z M-114.4765625 33.34375 C-115.11851563 33.94445312 -115.76046875 34.54515625 -116.421875 35.1640625 C-128.00179775 47.15940849 -134.67871908 65.83429572 -134.4765625 82.34375 C-133.02336327 102.88975145 -125.45221774 120.21969235 -110.4765625 134.34375 C-94.51149104 147.86235711 -75.80043062 151.70696242 -55.4765625 150.34375 C-38.87053477 148.51259883 -22.50126105 139.09245644 -11.94921875 126.2734375 C0.43314694 109.67606706 5.46774618 91.40410556 3.125 70.84765625 C-0.00895935 52.91896672 -10.30163208 36.05968473 -25.12890625 25.56640625 C-53.6336505 6.282583 -89.61317468 9.81980395 -114.4765625 33.34375 Z M72.2109375 37.0078125 C59.91554123 53.16880684 54.68964345 71.23023111 56.5234375 91.34375 C57.14983397 95.51651417 58.14186803 99.36059608 59.5234375 103.34375 C60.03390625 104.83455078 60.03390625 104.83455078 60.5546875 106.35546875 C63.42829405 113.93751845 67.49803818 120.02179766 72.5234375 126.34375 C72.98234375 126.97925781 73.44125 127.61476563 73.9140625 128.26953125 C82.43458644 139.43347075 98.82251598 147.89985201 112.5078125 150.09765625 C133.9032057 151.84365336 152.31638882 148.42891013 169.5234375 134.96875 C182.18019524 123.82550589 192.49496524 107.25659781 193.67871094 90.09228516 C194.67236745 69.24602842 189.9700145 50.76803436 175.99609375 34.8046875 C161.60790998 20.48469418 143.88415387 13.04758457 123.76269531 13.02905273 C103.95978749 13.36466158 85.25638707 21.97910201 72.2109375 37.0078125 Z M273.90600586 199.53100586 C272.94838852 200.00827621 271.99077118 200.48554657 271.00413513 200.97727966 C269.44941246 201.76003014 269.44941246 201.76003014 267.86328125 202.55859375 C266.27296837 203.35409386 266.27296837 203.35409386 264.65052795 204.16566467 C262.40596324 205.28945991 260.16237288 206.41520301 257.91967773 207.54272461 C254.47412766 209.27462 251.02542623 211.00010529 247.57617188 212.72460938 C245.40085252 213.81472682 243.22571605 214.90520929 241.05078125 215.99609375 C239.49302223 216.77580788 239.49302223 216.77580788 237.90379333 217.5712738 C236.47209557 218.29190758 236.47209557 218.29190758 235.01147461 219.02709961 C234.16701279 219.45123642 233.32255096 219.87537323 232.45249939 220.31236267 C230.57337552 221.19708673 230.57337552 221.19708673 229.5234375 222.34375 C229.42676813 224.30536604 229.40156653 226.27051645 229.40318298 228.23451233 C229.40180832 229.51483841 229.40043365 230.79516449 229.39901733 232.11428833 C229.40255695 233.54632591 229.40619177 234.97836326 229.40991211 236.41040039 C229.41019397 237.90806578 229.41003626 239.4057313 229.4094696 240.90339661 C229.40918159 244.98173172 229.41507886 249.06003767 229.42204356 253.13836598 C229.42827655 257.39582628 229.42888085 261.65328718 229.43006897 265.91075134 C229.43318245 273.97848187 229.44139606 282.04619891 229.45141846 290.11392349 C229.46257908 299.29635779 229.46808992 308.47879272 229.47311389 317.66123211 C229.48357866 336.5554124 229.50117843 355.44958012 229.5234375 374.34375 C236.02418467 377.6056872 242.52599791 380.86548873 249.02919674 384.12253571 C252.04856086 385.63483176 255.06754686 387.14787283 258.08569336 388.66259766 C261.55212297 390.40226312 265.02015338 392.13872239 268.48828125 393.875 C269.57680893 394.42184448 270.66533661 394.96868896 271.78684998 395.53210449 C272.78781204 396.03262329 273.78877411 396.53314209 274.82006836 397.04882812 C275.70609238 397.49295044 276.59211639 397.93707275 277.50498962 398.39465332 C279.30252051 399.41466961 279.30252051 399.41466961 280.5234375 399.34375 C280.5234375 332.68375 280.5234375 266.02375 280.5234375 197.34375 C277.84931973 197.34375 276.30056873 198.33170593 273.90600586 199.53100586 Z M-113.9140625 210.40625 C-116.26366344 214.82349977 -116.60471838 217.93876151 -116.61700439 222.89021301 C-116.61997552 223.55824548 -116.62294664 224.22627795 -116.6260078 224.91455382 C-116.63469367 227.15764812 -116.63620294 229.40068904 -116.63769531 231.64379883 C-116.64232357 233.25025039 -116.64734824 234.85670085 -116.65274048 236.46315002 C-116.66586581 240.83100412 -116.6723097 245.19884284 -116.67675114 249.56671357 C-116.67968166 252.29534439 -116.68378643 255.02397101 -116.68825531 257.75259972 C-116.70193062 266.28917001 -116.7115971 274.8257307 -116.7154572 283.36231118 C-116.71993812 293.21779985 -116.73748742 303.07314983 -116.7664578 312.92859632 C-116.78807149 320.54567557 -116.79816132 328.1627158 -116.79949832 335.77982539 C-116.80054658 340.3295825 -116.80645877 344.87920926 -116.82431793 349.4289341 C-116.8407932 353.70940785 -116.8429568 357.98965317 -116.83417892 362.27014732 C-116.83340826 363.83987922 -116.83775523 365.40962336 -116.84763718 366.97932434 C-116.86035287 369.12526651 -116.8544827 371.27039919 -116.84405518 373.41633606 C-116.84552174 374.61630124 -116.8469883 375.81626642 -116.8484993 377.05259418 C-116.26028042 382.25756448 -114.39711659 385.42319591 -110.7265625 389.09375 C-104.27784428 393.55824723 -98.0593859 393.63456712 -90.46339417 393.59771729 C-88.97443466 393.60239726 -88.97443466 393.60239726 -87.45539516 393.60717177 C-84.13760168 393.61513296 -80.81999204 393.60883535 -77.50219727 393.60253906 C-75.12008558 393.60524977 -72.73797474 393.60881115 -70.35586548 393.61315918 C-64.56217855 393.62132992 -58.76854979 393.62013694 -52.97486109 393.6143339 C-48.26447051 393.6098118 -43.55409445 393.60920687 -38.84370232 393.61138153 C-37.83697046 393.61184123 -37.83697046 393.61184123 -36.80990059 393.61231022 C-35.44632618 393.61294969 -34.08275177 393.61359811 -32.71917736 393.6142554 C-19.94054484 393.61995496 -7.16194104 393.6134069 5.61668677 393.60265467 C16.57235309 393.59372153 27.52797702 393.59526995 38.48364258 393.60449219 C51.21590674 393.61520495 63.94814574 393.61940352 76.68041378 393.61326766 C78.03919637 393.61263059 79.39797896 393.61200184 80.75676155 393.61138153 C81.42524973 393.61107298 82.09373792 393.61076443 82.78248332 393.61044653 C87.48464325 393.60872245 92.18678717 393.61162853 96.88894463 393.61634064 C103.22301894 393.62212175 109.55701327 393.61810306 115.89107895 393.60655212 C118.2146434 393.60390954 120.53821459 393.60466376 122.86177635 393.60907745 C126.03570335 393.61455015 129.20937476 393.6076776 132.38328552 393.59771729 C133.30070839 393.60217873 134.21813125 393.60664017 135.16335481 393.61123681 C142.81139593 393.56475108 149.84503698 393.02215052 155.5234375 387.34375 C159.14731014 382.16678909 159.64795306 378.08412615 159.66387939 371.84234619 C159.66685052 371.19120464 159.66982164 370.54006309 159.6728828 369.86918998 C159.68154848 367.68914744 159.68307624 365.50915995 159.68457031 363.32910156 C159.68920002 361.76515588 159.69422489 360.20121132 159.69961548 358.63726807 C159.71272739 354.3891698 159.71918217 350.14108733 159.72362614 345.89297199 C159.72655902 343.23752188 159.73066426 340.58207606 159.73513031 337.92662811 C159.74880253 329.61431023 159.75847033 321.3020022 159.7623322 312.98967385 C159.76681136 303.40192593 159.78435381 293.81432069 159.8133328 284.22661614 C159.83496741 276.81075762 159.84503744 269.39493918 159.84637332 261.97904944 C159.84742014 257.55220283 159.85330169 253.12549039 159.87119293 248.69867706 C159.88770425 244.53226985 159.88981433 240.36609721 159.88105392 236.19966888 C159.88028517 234.67431509 159.88460497 233.14894852 159.89451218 231.62362671 C160.35103665 219.44423125 160.35103665 219.44423125 155.1776619 208.83850479 C149.0164742 203.31981415 143.38862829 203.05064905 135.522995 203.07632446 C133.99984679 203.06952779 133.99984679 203.06952779 132.44592792 203.06259382 C129.03901979 203.04992063 125.63227091 203.05157209 122.2253418 203.05322266 C119.78441156 203.04723923 117.34348322 203.04043412 114.90255737 203.03286743 C108.95753417 203.01701884 103.01257373 203.01075821 97.06753524 203.00964268 C92.23409768 203.00869182 87.40067319 203.00457967 82.56723976 202.99824142 C68.8582546 202.98063072 55.14930074 202.97140224 41.44030418 202.97290237 C40.33205454 202.97302224 40.33205454 202.97302224 39.20141602 202.97314453 C38.46167893 202.97322629 37.72194184 202.97330805 36.95978848 202.97339229 C24.97328355 202.97420507 12.98690431 202.95506917 1.00043573 202.9268678 C-11.31238527 202.89812761 -23.62514499 202.88432814 -35.93800038 202.88605535 C-42.84864211 202.88671888 -49.75915208 202.88124303 -56.66976357 202.85969925 C-63.16964178 202.83956554 -69.66931369 202.8401728 -76.16920853 202.85473251 C-78.55405394 202.85682531 -80.93891664 202.85209179 -83.32373238 202.8400116 C-86.58120562 202.82458051 -89.83771661 202.83385411 -93.09516907 202.84927368 C-94.50836826 202.83384299 -94.50836826 202.83384299 -95.95011693 202.81810057 C-103.41414181 202.89609448 -109.14739258 204.41735703 -113.9140625 210.40625 Z " fill="#000000" transform="translate(191.4765625,49.65625)"/>
<path d="M0 0 C0.73604173 -0.00367669 1.47208345 -0.00735338 2.23042947 -0.01114148 C4.70378231 -0.02217937 7.17709313 -0.02602234 9.65046692 -0.02983093 C11.4211592 -0.03609554 13.19185016 -0.04274234 14.96253967 -0.04974365 C20.78404321 -0.07078802 26.60554702 -0.08114689 32.42707825 -0.09111023 C34.43127773 -0.09515775 36.43547708 -0.09927467 38.43967628 -0.10346031 C47.85617481 -0.12251338 57.2726655 -0.13674376 66.6891796 -0.14507228 C77.55722888 -0.15484336 88.42507441 -0.18115907 99.2930519 -0.22157317 C107.69401891 -0.25174066 116.09492754 -0.26654179 124.49594766 -0.26985329 C129.51305796 -0.27220321 134.52995062 -0.28115599 139.54700279 -0.30631447 C144.26909686 -0.32961098 148.99083025 -0.33382204 153.71296692 -0.32355309 C155.44312045 -0.32305799 157.17329183 -0.32937078 158.90339088 -0.34310913 C175.18184002 -0.46510695 175.18184002 -0.46510695 181.8216095 4.14717102 C187.57299712 10.04991095 188.13736565 15.67284703 188.157547 23.54170227 C188.1675322 24.90098091 188.1675322 24.90098091 188.17771912 26.28771973 C188.18782388 28.20154294 188.19253681 30.11540124 188.19221497 32.0292511 C188.1965794 34.93959948 188.23289746 37.84841966 188.27082825 40.75849915 C188.27669882 42.62372837 188.2806666 44.48896475 188.282547 46.35420227 C188.29691803 47.21592545 188.31128906 48.07764862 188.32609558 48.96548462 C188.28229703 54.83158762 187.10901156 59.23884312 183.8216095 64.14717102 C178.56836493 69.26571701 173.55339958 70.44735904 166.38925171 70.40786743 C165.28050915 70.41360575 165.28050915 70.41360575 164.14936775 70.41946 C161.67749341 70.42976237 159.20585256 70.42580315 156.73396301 70.42182922 C154.95972987 70.42617722 153.18549861 70.43136066 151.41127014 70.43731689 C146.59518009 70.45070841 141.77916852 70.45128542 136.96306348 70.4487536 C132.94211061 70.44768404 128.92117362 70.45256683 124.90022415 70.45735902 C115.41429039 70.46845462 105.92839622 70.46889123 96.44245911 70.46284485 C86.65684069 70.45680337 76.87136599 70.46912039 67.0857721 70.49041492 C58.68308996 70.50802766 50.28045359 70.51403281 41.87775367 70.51077718 C36.85967122 70.50896373 31.8416913 70.51160664 26.82362556 70.52549171 C22.10482448 70.53806017 17.38624757 70.53613525 12.66744995 70.52308083 C10.93646609 70.5207134 9.20546649 70.52345569 7.47450066 70.53170395 C5.10972376 70.54215915 2.74570079 70.53408109 0.38095093 70.52139282 C-0.64411006 70.53245425 -0.64411006 70.53245425 -1.68987936 70.54373914 C-7.66739654 70.47636331 -11.50458915 68.63076767 -15.9283905 64.70967102 C-19.11348069 61.0822072 -20.42420533 58.49308737 -20.45304871 53.65742493 C-20.46258072 52.77615936 -20.47211273 51.8948938 -20.48193359 50.98692322 C-20.48102219 50.04207062 -20.48011078 49.09721802 -20.47917175 48.12373352 C-20.48345688 47.14480133 -20.487742 46.16586914 -20.49215698 45.15727234 C-20.49789587 43.08783236 -20.4984038 41.01837222 -20.49406433 38.94892883 C-20.49090901 35.79069884 -20.51435324 32.63340993 -20.53971863 29.47529602 C-20.5419922 27.46227637 -20.54269485 25.4492542 -20.54167175 23.43623352 C-20.5508815 22.49542938 -20.56009125 21.55462524 -20.56958008 20.58531189 C-20.52657607 14.45746696 -19.77796247 9.96534336 -15.4596405 5.28388977 C-14.871828 4.80564758 -14.2840155 4.3274054 -13.6783905 3.83467102 C-13.090578 3.34353821 -12.5027655 2.8524054 -11.8971405 2.34638977 C-8.16787922 -0.25561754 -4.34873744 -0.00116184 0 0 Z M18.5091095 24.64717102 C15.27123 28.52242837 14.45981392 31.86050472 14.54426575 36.95576477 C15.23739495 42.4324617 17.61887309 46.18989103 21.8841095 49.58467102 C26.55779711 52.07067507 30.58668906 52.6756487 35.8216095 52.14717102 C41.18651676 50.32310255 44.99781514 47.02712631 47.8216095 42.14717102 C49.37350321 37.10556924 49.42506375 32.67836619 47.2591095 27.83467102 C44.74705763 23.54071385 41.54671927 20.28995899 36.8841095 18.33467102 C28.89460637 17.60835255 23.95067605 18.5189306 18.5091095 24.64717102 Z M104.4466095 24.33467102 C101.81381063 28.89143829 100.4461235 33.22511973 101.126297 38.51826477 C102.72131891 44.35683263 105.74064975 47.913833 110.8216095 51.14717102 C115.91395279 52.84461878 121.24012772 52.41611316 126.5716095 52.45967102 C128.32344543 52.50317688 128.32344543 52.50317688 130.110672 52.54756165 C138.38933598 52.60857221 143.07532893 51.79220076 149.1341095 45.89717102 C152.07298937 41.10788529 153.38127427 36.61162033 152.2591095 31.02217102 C150.6167521 25.73128547 147.74430578 22.22388094 142.891922 19.50654602 C137.72715397 17.41535247 132.37546055 17.67259007 126.8841095 17.70967102 C125.31499817 17.67970032 125.31499817 17.67970032 123.71418762 17.64912415 C115.87029341 17.65405431 110.38216808 18.86770917 104.4466095 24.33467102 Z " fill="#000000" transform="translate(129.1783905029297,355.8528289794922)"/>
<path d="M0 0 C7.44946088 6.92361658 10.7092691 14.61406609 11.8125 24.75 C11.38100489 36.643084 7.41966176 45.59676563 -1.1875 53.75 C-9.25954206 59.9172275 -18.2484792 62.54181464 -28.37109375 61.38671875 C-39.37453328 59.27416204 -47.22990352 54.15902782 -53.78515625 45.07421875 C-55.97593826 41.44325692 -57.23621925 37.86726199 -58.1875 33.75 C-58.620625 31.9246875 -58.620625 31.9246875 -59.0625 30.0625 C-59.92619875 20.65569407 -56.96544514 11.29777446 -51.203125 3.9375 C-45.42187919 -2.33672026 -39.50979353 -6.28908854 -31.1875 -8.25 C-30.094375 -8.518125 -29.00125 -8.78625 -27.875 -9.0625 C-17.1646577 -9.60709368 -8.22584367 -6.72466549 0 0 Z " fill="#000000" transform="translate(340.1875,105.25)"/>
<path d="M0 0 C7.33095644 7.33095644 10.79985796 15.77787205 11.1875 26.0625 C10.98025174 36.69311671 7.25278414 45.22429768 -0.1875 52.8125 C-7.16291026 59.05078276 -15.60252974 61.58411953 -24.890625 61.90625 C-34.87608204 61.27823383 -42.75978078 57.32079002 -49.91796875 50.421875 C-56.932968 42.35643697 -59.73759501 33.43457267 -59.1875 22.8125 C-57.7755009 12.75533657 -53.0096215 4.38463071 -45.0234375 -1.91015625 C-29.91546495 -12.42144779 -14.5250928 -9.96820094 0 0 Z " fill="#000000" transform="translate(150.1875,105.1875)"/>
</svg>
